<svg width="21" height="20" viewBox="0 0 21 20" fill="none" xmlns="http://www.w3.org/2000/svg">
<path d="M10.3168 3.64122C10.3168 3.64122 10.3168 3.64122 11.188 2.42748C12.1967 1.01954 13.6869 0 15.4752 0C18.3295 0 20.6336 2.43962 20.6336 5.46183C20.6336 6.59061 20.3126 7.63443 19.7624 8.49618C18.8339 9.96481 10.3168 19.4198 10.3168 19.4198C10.3168 19.4198 1.79971 9.96481 0.871196 8.49618C0.320967 7.63443 0 6.59061 0 5.46183C0 2.43962 2.30408 0 5.1584 0C6.94664 0 8.44831 1.01954 9.4456 2.42748C10.3168 3.64122 10.3168 3.64122 10.3168 3.64122Z" fill="#D9573B"/>
</svg>
